<?xml version="1.0" encoding="utf-8" ?>
<svg baseProfile="full" height="200mm" version="1.1" viewBox="0,0,200,200" width="200mm" xmlns="http://www.w3.org/2000/svg" xmlns:ev="http://www.w3.org/2001/xml-events" xmlns:xlink="http://www.w3.org/1999/xlink"><defs /><rect fill="#1a1a1a" height="200" width="200" x="0" y="0" /><text alignment-baseline="middle" fill="#e1ed5e" style="dominant-baseline: central; font-size:9.0px; font-family:Arial;" text-anchor="middle" x="100.0" y="100.0">2025</text><line stroke="#e1ed5e" stroke-width="0.3" x1="100.0" x2="100.0" y1="15.0" y2="10.0" /><path d="M 100.0 14.0 a86.0,86.0 0 0,1 42.46469731375804,11.215312516191453" fill="none" id="id13" stroke="none" /><text fill="#e1ed5e" style="font-size:6.75px; font-family:Arial;" text-anchor="middle"><textPath startOffset="22.20632615414155" xlink:href="#id13">January</textPath></text><path d="M 100.0 79.0 l 0.0 -21.75996239869292 a42.75996239869292,42.75996239869292 0 0,0 0.7360424619788004,0.006335349847149997 l -0.37456198270627206 21.75673842545433" fill="red" stroke="none" /><path d="M 101.44485096284872 79.0497635885617 l 2.017351723169213 -29.251456802221536 a50.32093847453056,50.32093847453056 0 0,0 0.8636266622245161,0.0670340504883524 l -2.52056857475607 29.212397489544717" fill="red" stroke="none" /><path d="M 102.16513564639614 79.11191278185805 l 2.8444160420731066 -27.441426346843645 a48.58845016614104,48.58845016614104 0 0,0 0.8311709106922038,0.09339173634750048 l -3.316353656275036 27.388398657025544" fill="red" stroke="none" /><path d="M 102.88285421437855 79.19881850522331 l 4.506956877645865 -32.519864352992535 a53.83069048670762,53.83069048670762 0 0,0 0.9167392725233668,0.13510353857491172 l -5.066065130597887 32.437466330256655" fill="red" stroke="none" /><path d="M 103.59715602781102 79.31037775812273 l 6.956862760186626 -40.01351661813606 a61.61378401003682,61.61378401003682 0 0,0 1.043341057203865,0.19066390933580027 l -7.644598938493392 39.88783722744952" fill="red" stroke="none" /><path d="M 104.307194497241 79.44645832069477 l 3.9961253714843337 -19.069148010646842 a40.48336274457203,40.48336274457203 0 0,0 0.680809243046553,0.14879853121759393 l -4.3237773386844145 18.997535981333378" fill="red" stroke="none" /><path d="M 104.66035177308747 79.52364482259891 l 5.993386978413824 -26.33335989663042 a48.00678675663737,48.00678675663737 0 0,0 0.8041738307631546,0.19032196392722242 l -6.445784496139502 26.226292020562326" fill="red" stroke="none" /><path d="M 105.36241919743992 79.69619591428918 l 9.959468790019285 -37.709678349436494 a60.0027032370492,60.0027032370492 0 0,0 0.9963366319543968,0.27233643834745275 l -10.607103311197392 37.532655370262745" fill="red" stroke="none" /><path d="M 106.0581310904928 79.89281104454417 l 13.466758815656906 -44.6967323881296 a67.68138257566014,67.68138257566014 0 0,0 1.1126001552514193,0.34569028409665853 l -14.234144343619043 44.45830196915042" fill="red" stroke="none" /><path d="M 107.08798089147638 80.2323363322302 l 10.501809704097798 -29.288487837653484 a52.11436206766031,52.11436206766031 0 0,0 0.841814890211314,0.3100475284329289 l -11.004406920081689 29.10337704141423" fill="red" stroke="none" /><path d="M 107.76421540070413 80.48803036053334 l 17.249768627797984 -43.34977127539437 a67.65573048770719,67.65573048770719 0 0,0 1.0783554432864908,0.43988826120924457 l -17.99340794067286 43.046422128001545" fill="red" stroke="none" /><path d="M 108.43124777332544 80.76684994638697 l 13.474091848406745 -30.73675893815632 a54.56038589113113,54.56038589113113 0 0,0 0.8569043281070402,0.3844679938600046 l -14.001178294980566 30.500270613779787" fill="red" stroke="none" /><path d="M 109.41281617654863 81.2277094730956 l 12.694663357539188 -25.317386871178982 a49.32180353978528,49.32180353978528 0 0,0 0.7556558581968431,0.3870762804011897 l -13.128579703324785 25.09511806546529" fill="red" stroke="none" /><line stroke="#e1ed5e" stroke-width="0.3" x1="143.23703022742887" x2="145.7803849466894" y1="26.81831364943548" y2="22.513508569990506" /><path d="M 143.74570117128098 25.957352633546492 a86.0,86.0 0 0,1 28.547481713284135,27.462654790039103" fill="none" id="id14" stroke="none" /><text fill="#e1ed5e" style="font-size:6.75px; font-family:Arial;" text-anchor="middle"><textPath startOffset="19.985693538727396" xlink:href="#id14">February</textPath></text><path d="M 113.34407831869373 83.78471172551755 l 13.297521829801148 -16.158714349299224 a41.92673257430043,41.92673257430043 0 0,0 0.553317996804668,0.4633879097501896 l -13.573697363564934 15.927425282155214" fill="red" stroke="none" /><path d="M 113.89432698308785 84.25364557470407 l 18.026277580470182 -20.429068359795277 a48.24506409347114,48.24506409347114 0 0,0 0.617971054470046,0.5548205143124789 l -18.37525962253622 20.1157488367135" fill="red" stroke="none" /><path d="M 114.42810811169701 84.74124197986012 l 15.610105231009275 -16.508804657194563 a43.72038768446947,43.72038768446947 0 0,0 0.5423758851221697,0.5217651717636766 l -15.891964359743863 16.237656398668587" fill="red" stroke="none" /><path d="M 115.4437574822437 85.77008943001954 l 16.28667712112775 -15.006578495049292 a43.14617912363083,43.14617912363083 0 0,0 0.498556892736603,0.5505189731497929 l -16.54257765448039 14.724006734629949" fill="red" stroke="none" /><path d="M 115.9244219780498 86.31012108654704 l 20.33344208690631 -17.48021752043181 a47.814303490174495,47.814303490174495 0 0,0 0.5311699775125522,0.6287377137394982 l -20.631322677905978 17.127620857063206" fill="red" stroke="none" /><path d="M 116.38621287248628 86.86637796730983 l 49.158638617458855 -39.400866098070516 a84.0,84.0 0 0,0 0.8945836776241438,1.1360304241878465 l -49.829576375676965 38.54884327992963" fill="red" stroke="none" /><path d="M 117.04232023915458 87.72973835380427 l 22.330935654085536 -16.07799991050886 a48.5167724907779,48.5167724907779 0 0,0 0.4821351498414992,0.6819459775575761 l -22.60438342373092 15.69122743261949" fill="red" stroke="none" /><line stroke="#e1ed5e" stroke-width="0.3" x1="172.23445277983987" x2="176.4835382374775" y1="55.19839476539836" y2="52.563006222186495" /><path d="M 173.08426987136738 54.67131705675599 a86.0,86.0 0 0,1 12.851231095245387,41.99856678651699" fill="none" id="id15" stroke="none" /><text fill="#e1ed5e" style="font-size:6.75px; font-family:Arial;" text-anchor="middle"><textPath startOffset="22.20632615414155" xlink:href="#id15">March</textPath></text><line stroke="#e1ed5e" stroke-width="0.3" x1="184.98032266829074" x2="189.97916517819016" y1="98.17113171792111" y2="98.06355123074" /><path d="M 185.9800911702706 98.14961562048488 a86.0,86.0 0 0,1 -9.607161424134198,41.387399972396054" fill="none" id="id16" stroke="none" /><text fill="#e1ed5e" style="font-size:6.75px; font-family:Arial;" text-anchor="middle"><textPath startOffset="21.466115282336823" xlink:href="#id16">April</textPath></text><line stroke="#e1ed5e" stroke-width="0.3" x1="174.80103733775053" x2="179.2010983576182" y1="140.37084112569926" y2="142.7455964860345" /><path d="M 175.68104954172406 140.8457921977663 a86.0,86.0 0 0,1 -30.038265399797805,32.042727171017184" fill="none" id="id17" stroke="none" /><text fill="#e1ed5e" style="font-size:6.75px; font-family:Arial;" text-anchor="middle"><textPath startOffset="22.206326154141568" xlink:href="#id17">May</textPath></text><line stroke="#e1ed5e" stroke-width="0.3" x1="143.8653032363475" x2="146.44561519142675" y1="172.8068346515853" y2="177.08958963109032" /><path d="M 144.38136562736335 173.6633856474863 a86.0,86.0 0 0,1 -40.68145358897372,12.25698825130547" fill="none" id="id18" stroke="none" /><text fill="#e1ed5e" style="font-size:6.75px; font-family:Arial;" text-anchor="middle"><textPath startOffset="21.466115282336833" xlink:href="#id18">June</textPath></text><line stroke="#e1ed5e" stroke-width="0.3" x1="102.19456741930631" x2="102.32365962044197" y1="184.97166512339345" y2="189.96999836594603" /><path d="M 102.22038585953345 185.97133177190398 a86.0,86.0 0 0,1 -42.740103519485714,-10.115201625700543" fill="none" id="id19" stroke="none" /><text fill="#e1ed5e" style="font-size:6.75px; font-family:Arial;" text-anchor="middle"><textPath startOffset="22.20632615414155" xlink:href="#id19">July</textPath></text><line stroke="#e1ed5e" stroke-width="0.3" x1="58.666819895761336" x2="56.23545636021788" y1="174.27360380694188" y2="178.64263932499728" /><path d="M 58.180547188652646 175.14741091055294 a86.0,86.0 0 0,1 -31.652253787137756,-30.449443065178592" fill="none" id="id20" stroke="none" /><text fill="#e1ed5e" style="font-size:6.75px; font-family:Arial;" text-anchor="middle"><textPath startOffset="22.20632615414155" xlink:href="#id20">August</textPath></text><line stroke="#e1ed5e" stroke-width="0.3" x1="26.63291911575756" x2="22.317208475507996" y1="142.92168965132927" y2="145.44649492493687" /><path d="M 25.769776987707644 143.4266507060508 a86.0,86.0 0 0,1 -11.730757126820373,-40.83630448921669" fill="none" id="id21" stroke="none" /><text fill="#e1ed5e" style="font-size:6.75px; font-family:Arial;" text-anchor="middle"><textPath startOffset="21.46611528233685" xlink:href="#id21">September</textPath></text><line stroke="#e1ed5e" stroke-width="0.3" x1="15.007084014347285" x2="10.007500721073583" y1="101.09737516637583" y2="101.16192664675087" /><path d="M 14.007167355692545 101.11028546245083 a86.0,86.0 0 0,1 10.666146001902534,-42.60595125391555" fill="none" id="id22" stroke="none" /><text fill="#e1ed5e" style="font-size:6.75px; font-family:Arial;" text-anchor="middle"><textPath startOffset="22.20632615414155" xlink:href="#id22">October</textPath></text><line stroke="#e1ed5e" stroke-width="0.3" x1="26.266209847984243" x2="21.928928074336255" y1="57.711370442889674" y2="55.22380399835377" /><path d="M 25.398753493254645 57.213857153982495 a86.0,86.0 0 0,1 29.58750427330803,-30.492523968695096" fill="none" id="id23" stroke="none" /><text fill="#e1ed5e" style="font-size:6.75px; font-family:Arial;" text-anchor="middle"><textPath startOffset="21.46611528233685" xlink:href="#id23">November</textPath></text><line stroke="#e1ed5e" stroke-width="0.3" x1="56.762969772571076" x2="54.21961505331055" y1="26.818313649435495" y2="22.513508569990535" /><path d="M 56.25429882871897 25.957352633546506 a86.0,86.0 0 0,1 42.265352541879196,-11.944610805530505" fill="none" id="id24" stroke="none" /><text fill="#e1ed5e" style="font-size:6.75px; font-family:Arial;" text-anchor="middle"><textPath startOffset="22.20632615414155" xlink:href="#id24">December</textPath></text></svg>