<?xml version="1.0" encoding="utf-8" ?>
<svg baseProfile="full" height="200mm" version="1.1" viewBox="0,0,200,200" width="200mm" xmlns="http://www.w3.org/2000/svg" xmlns:ev="http://www.w3.org/2001/xml-events" xmlns:xlink="http://www.w3.org/1999/xlink"><defs /><rect fill="#1a1a1a" height="200" width="200" x="0" y="0" /><text alignment-baseline="middle" fill="#e1ed5e" style="dominant-baseline: central; font-size:9.0px; font-family:Arial;" text-anchor="middle" x="100.0" y="100.0">2024</text><line stroke="#e1ed5e" stroke-width="0.3" x1="100.0" x2="100.0" y1="15.0" y2="10.0" /><path d="M 100.0 14.0 a86.0,86.0 0 0,1 42.35913384403234,11.155469271406648" fill="none" id="id1" stroke="none" /><text fill="#e1ed5e" style="font-size:6.75px; font-family:Arial;" text-anchor="middle"><textPath startOffset="22.145653131862478" xlink:href="#id1">January</textPath></text><line stroke="#e1ed5e" stroke-width="0.3" x1="143.13028292997686" x2="145.6673583964461" y1="26.7553504044142" y2="22.446841604673864" /><path d="M 143.63769802327073 25.89364864446614 a86.0,86.0 0 0,1 29.32050498858742,28.57503671076993" fill="none" id="id2" stroke="none" /><text fill="#e1ed5e" style="font-size:6.75px; font-family:Arial;" text-anchor="middle"><textPath startOffset="20.669276256404974" xlink:href="#id2">February</textPath></text><line stroke="#e1ed5e" stroke-width="0.3" x1="172.87174338648825" x2="177.1583165268699" y1="56.24261187166439" y2="53.66864786411523" /><path d="M 173.72905801456457 55.72781907015455 a86.0,86.0 0 0,1 12.242430191666344,42.057860355516425" fill="none" id="id3" stroke="none" /><text fill="#e1ed5e" style="font-size:6.75px; font-family:Arial;" text-anchor="middle"><textPath startOffset="22.145653131862474" xlink:href="#id3">March</textPath></text><line stroke="#e1ed5e" stroke-width="0.3" x1="184.99686870605535" x2="189.99668451229388" y1="99.2704041080226" y2="99.22748670261217" /><path d="M 185.99683186730306 99.26182062694052 a86.0,86.0 0 0,1 -10.086455211305974,41.156179273409016" fill="none" id="id4" stroke="none" /><text fill="#e1ed5e" style="font-size:6.75px; font-family:Arial;" text-anchor="middle"><textPath startOffset="21.40746469413373" xlink:href="#id4">April</textPath></text><line stroke="#e1ed5e" stroke-width="0.3" x1="174.33088141563837" x2="178.70328620479359" y1="141.23008692659167" y2="143.65538615756765" /><path d="M 175.20536237346943 141.71514677278685 a86.0,86.0 0 0,1 -30.301960400862466,31.631185727798858" fill="none" id="id5" stroke="none" /><text fill="#e1ed5e" style="font-size:6.75px; font-family:Arial;" text-anchor="middle"><textPath startOffset="22.145653131862474" xlink:href="#id5">May</textPath></text><line stroke="#e1ed5e" stroke-width="0.3" x1="143.1302829299769" x2="145.66735839644613" y1="173.24464959558577" y2="177.55315839532614" /><path d="M 143.63769802327073 174.10635135553383 a86.0,86.0 0 0,1 -40.68552437913181,11.842963189579606" fill="none" id="id6" stroke="none" /><text fill="#e1ed5e" style="font-size:6.75px; font-family:Arial;" text-anchor="middle"><textPath startOffset="21.407464694133747" xlink:href="#id6">June</textPath></text><path d="M 107.407793817531 119.65005319985036 l 8.452791534393342 22.422033797025154 a44.962413991892596,44.962413991892596 0 0,0 -0.7245604125083202,0.266068619680517 l -8.066641970230895 -22.563833265714393" fill="red" stroke="none" /><path d="M 106.72888874123015 119.89276391827305 l 7.913524996087627 23.39493050969137 a45.69709803634815,45.69709803634815 0 0,0 -0.7452484301396007,0.2449779615016034 l -7.510753828300293 -23.527329392594993" fill="red" stroke="none" /><path d="M 106.0420521117495 120.11202640906438 l 9.86017073486471 32.821301529632436 a55.27040707403014,55.27040707403014 0 0,0 -0.9110141914413498,0.2651829538654875 l -9.295296531041753 -32.985728177800446" fill="red" stroke="none" /><path d="M 104.9986988182912 120.39639698878246 l 6.598690902933519 26.924910692760772 a48.72171599027739,48.72171599027739 0 0,0 -0.8140420740764723,0.19211171296039734 l -6.1355166751171675 -27.034218549367395" fill="red" stroke="none" /><path d="M 104.64783097203109 120.47920084513623 l 4.7750655523711 21.039819882469942 a42.57487593744675,42.57487593744675 0 0,0 -0.7141176863307783,0.1556386259931243 l -4.413185449421186 -21.118689966596786" fill="red" stroke="none" /><path d="M 103.94208987418118 120.62667999033965 l 5.15380186716252 26.966869158369306 a48.4549395535772,48.4549395535772 0 0,0 -0.8183468594065179,0.14913005835205193 l -4.690120274204944 -27.05136739065272" fill="red" stroke="none" /><path d="M 103.2317021107853 120.74984581791261 l 6.090131758639488 39.10301465620994 a60.57442937101379,60.57442937101379 0 0,0 -1.0288275332752885,0.15120221776958076 l -5.417979119756514 -39.20179794727841" fill="red" stroke="none" /><path d="M 102.51750503828377 120.84855314841334 l 2.8463810655826296 23.5721184363119 a44.74334965302964,44.74334965302964 0 0,0 -0.7633302772763264,0.08553274972340782 l -2.441314886705504 -23.617506946542278" fill="red" stroke="none" /><path d="M 101.80034050326958 120.92268563240118 l 3.5315547259493356 41.04201910164688 a62.1936792569239,62.1936792569239 0 0,0 -1.0644922216163202,0.08239843027243025 l -2.8264935095577797 -41.096595298914366" fill="red" stroke="none" /><line stroke="#e1ed5e" stroke-width="0.3" x1="101.45913802915013" x2="101.54496967792366" y1="184.9874750549273" y2="189.98673829345242" /><path d="M 101.47630435890484 185.9873277026323 a86.0,86.0 0 0,1 -42.54439059252881,-10.42667462771756" fill="none" id="id7" stroke="none" /><text fill="#e1ed5e" style="font-size:6.75px; font-family:Arial;" text-anchor="middle"><textPath startOffset="22.145653131862474" xlink:href="#id7">July</textPath></text><path d="M 100.0 121.0 l 3.730231293197635e-15 30.459650045995033 a51.45965004599503,51.45965004599503 0 0,0 -0.8833733217513866,-0.007582697532789496 l 0.5228803969025307 -30.455161746656678" fill="red" stroke="none" /><path d="M 99.63950707515114 120.99690560180557 l -0.4972542796583469 28.96256888941118 a49.966837219353565,49.966837219353565 0 0,0 -0.8574944224690207,-0.022086014580676654 l 0.9943620161981116 -28.949765157480456" fill="red" stroke="none" /><path d="M 98.55909050195518 120.95050786540614 l -1.7011295951613787 24.734050967019876 a45.79248110090377,45.79248110090377 0 0,0 -0.7837732149444688,-0.06066900376494985 l 2.1254718048810837 -24.70120419625987" fill="red" stroke="none" /><path d="M 98.19965949673042 120.92268563240118 l -2.8393704087014737 32.99778811136802 a54.119722893776604,54.119722893776604 0 0,0 -0.9249329607646861,-0.08759211303358982 l 3.4054029328511755 -32.944184242829245" fill="red" stroke="none" /><path d="M 97.48249496171623 120.84855314841334 l -3.6198732614663185 29.977743414428115 a51.195506000899655,51.195506000899655 0 0,0 -0.8715966102306938,-0.11284563116641144 l 4.133947693587807 -29.911186187061308" fill="red" stroke="none" /><path d="M 96.76829788921471 120.74984581791261 l -3.3234109024296634 21.33868204771766 a42.59593507028525,42.59593507028525 0 0,0 -0.7215396372853071,-0.11872907273726141 l 3.6892280427680344 -21.278486976484732" fill="red" stroke="none" /><path d="M 95.00130118170881 120.39639698878247 l -5.314999661393455 21.687012366567085 a43.3288093455125,43.3288093455125 0 0,0 -0.7208979350556576,-0.1832494360417039 l 5.686502889674491 -21.592577698690118" fill="red" stroke="none" /><path d="M 94.6519064749342 120.30758222061772 l -4.432687813872839 16.8316376324861 a38.40553781549364,38.40553781549364 0 0,0 -0.6361028742540279,-0.17337266700177015 l 4.720972089061561 -16.753064471340185" fill="red" stroke="none" /><path d="M 94.30408787586889 120.21278271476187 l -11.180530406255992 39.67575812485245 a62.22099031982383,62.22099031982383 0 0,0 -1.0255796580432373,-0.29853129149830315 l 11.859970076680836 -39.47798313905163" fill="red" stroke="none" /><path d="M 93.27111125876986 119.89276391827306 l -10.66434898789606 31.527252852082068 a54.28206741977963,54.28206741977963 0 0,0 -0.8801300303760924,-0.3061549118388642 l 11.203984790317175 -31.339539507674615" fill="red" stroke="none" /><path d="M 92.93061703081489 119.77432235084164 l -6.726350906878159 18.81480062082657 a40.98100395185178,40.98100395185178 0 0,0 -0.6604007768291461,-0.24250831275556808 l 7.048340835361424 -18.696561459062284" fill="red" stroke="none" /><path d="M 91.92203290615298 119.3841803445677 l -5.682856155471189 13.636786001987682 a35.77351639075085,35.77351639075085 0 0,0 -0.5648211082375549,-0.24108854476743194 l 5.9161123388791745 -13.537222807560847" fill="red" stroke="none" /><path d="M 91.26138138417905 119.09545874513695 l -15.37478773512465 33.59668590866053 a57.947549336124155,57.947549336124155 0 0,0 -0.9009775648444376,-0.4217029933713964 l 15.949254013840578 -33.327806683718606" fill="red" stroke="none" /><path d="M 90.28995756902619 118.62028667847754 l -11.915078210921516 22.848733531392977 a46.76885159957615,46.76885159957615 0 0,0 -0.7086843643716036,-0.37733450722231304 l 12.305551391079682 -22.64082855644809" fill="red" stroke="none" /><line stroke="#e1ed5e" stroke-width="0.3" x1="58.13341422392154" x2="55.67067388415222" y1="173.97424548756322" y2="178.32567169271397" /><path d="M 57.64086615596768 174.84453072859336 a86.0,86.0 0 0,1 -31.369924170532247,-30.572349798747897" fill="none" id="id8" stroke="none" /><text fill="#e1ed5e" style="font-size:6.75px; font-family:Arial;" text-anchor="middle"><textPath startOffset="22.145653131862474" xlink:href="#id8">August</textPath></text><path d="M 89.65649057296885 118.27599006163327 l -11.6433437806124 20.572672816689153 a44.63900000457012,44.63900000457012 0 0,0 -0.6636491442193545,-0.383158012062512 l 11.994785392692155 -20.369767907350468" fill="red" stroke="none" /><path d="M 85.86807049272751 115.53346607816431 l -14.52978032945946 15.970773824953639 a42.591204991620344,42.591204991620344 0 0,0 -0.5365888021260331,-0.49665858444218736 l 14.80179890289946 -15.718997494379074" fill="red" stroke="none" /><path d="M 85.60350026404147 115.28858382429668 l -14.964892317819318 15.892197049196213 a42.82910738290525,42.82910738290525 0 0,0 -0.5309330979809158,-0.5086218976731519 l 15.235497901665548 -15.632963021217478" fill="red" stroke="none" /><path d="M 84.58840730492382 114.26474011684316 l -29.76585683988284 27.550832712555536 a61.559272880164166,61.559272880164166 0 0,0 -0.7111629112014257,-0.7816926168157762 l 30.234417451926145 -27.035802520182084" fill="red" stroke="none" /><path d="M 84.1078160697243 113.72728997021213 l -12.858210885007555 11.106616314726628 a37.99089500661688,37.99089500661688 0 0,0 -0.422070587727344,-0.49719809106141316 l 13.046976036242011 -10.88425144121566" fill="red" stroke="none" /><path d="M 83.64595745247003 113.17365903436017 l -23.524588187747348 18.94974302582617 a51.20759854983427,51.20759854983427 0 0,0 -0.5455647048489721,-0.6893031823838892 l 23.846419323237882 -18.5431198995276" fill="red" stroke="none" /><path d="M 82.98947788004972 112.3143062007846 l -19.7685778558017 14.310925858347703 a45.404902568214,45.404902568214 0 0,0 -0.4516380285341961,-0.6352854473132096 l 20.011330982865857 -13.96946318432499" fill="red" stroke="none" /><path d="M 82.78059297857968 112.02048342749411 l -10.43938642977503 7.287502491590855 a33.73139747219896,33.73139747219896 0 0,0 -0.32737166649503574,-0.47764504503704064 l 10.562947833085392 -7.107222711483764" fill="red" stroke="none" /><line stroke="#e1ed5e" stroke-width="0.3" x1="26.387840678322732" x2="22.057713659400548" y1="142.50000000000003" y2="145.00000000000006" /><path d="M 25.521815274538298 143.00000000000003 a86.0,86.0 0 0,1 -11.493303480769221,-40.785679425670985" fill="none" id="id9" stroke="none" /><text fill="#e1ed5e" style="font-size:6.75px; font-family:Arial;" text-anchor="middle"><textPath startOffset="21.40746469413373" xlink:href="#id9">September</textPath></text><path d="M 81.63589988554817 110.18625677009913 l -19.034035174353246 10.5578584547402 a42.76609450886506,42.76609450886506 0 0,0 -0.35058962135673505,-0.6450454155643817 l 19.21247014532531 -10.229558205701233" fill="red" stroke="none" /><path d="M 81.29705330413844 109.54985784667822 l -21.0918572203519 10.769652582144394 a44.682311072693054,44.682311072693054 0 0,0 -0.34294756079032535,-0.6861248530440536 l 21.273624694353963 -10.405995872936588" fill="red" stroke="none" /><path d="M 81.1358732173502 109.22738970284198 l -10.112856378552664 4.946704816445726 a32.257875140286494,32.257875140286494 0 0,0 -0.2390473555222806,-0.4995170335983822 l 10.196282992034858 -4.772375280782239" fill="red" stroke="none" /><path d="M 80.83023694016515 108.57439118712176 l -30.282500313498037 13.544977212373889 a54.173728052794075,54.173728052794075 0 0,0 -0.3724214674119219,-0.8521731998802858 l 30.510555662926926 -13.023141942717753" fill="red" stroke="none" /><path d="M 80.68587082218212 108.24405325689762 l -11.465669017169954 4.89401231260634 a33.4664719358459,33.4664719358459 0 0,0 -0.2209968920022304,-0.5303120897116774 l 11.54799175370867 -4.696467713453382" fill="red" stroke="none" /><path d="M 80.5471966667186 107.91128576633889 l -16.09127653840778 6.54418208314115 a38.37111106903696,38.37111106903696 0 0,0 -0.24290982612094203,-0.6122914422675995 l 16.201245039494847 -6.266989623659986" fill="red" stroke="none" /><path d="M 80.28708602549918 107.23885506374661 l -30.832831852477444 11.322242935451442 a53.84595416687613,53.84595416687613 0 0,0 -0.31117789721493877,-0.870419960950929 l 31.022649919736324 -10.791288018119593" fill="red" stroke="none" /><path d="M 79.94057633289273 106.21446072829308 l -22.505732857218323 6.972333568684611 a44.561015403277565,44.561015403277565 0 0,0 -0.2200967858096615,-0.7326306173602998 l 22.622105963031615 -6.584965347733588" fill="red" stroke="none" /><path d="M 79.83685265289637 105.86919833188381 l -32.70308067399885 9.519390164396492 a55.060391581308714,55.060391581308714 0 0,0 -0.2563756245611781,-0.9097866469291586 l 32.8616747906346 -8.956595593564339" fill="red" stroke="none" /><path d="M 79.64726062577567 105.17358676015961 l -25.094873553814416 6.379018724639946 a46.892944185071755,46.892944185071755 0 0,0 -0.19161902521211416,-0.7818710130181125 l 25.200680105542823 -5.9472918870137335" fill="red" stroke="none" /><path d="M 79.48165901384964 104.47187691870673 l -27.41486348814515 5.974941899293073 a49.058415328980395,49.058415328980395 0 0,0 -0.17227046903276136,-0.824376556933566 l 27.513391668002278 -5.503448891074099" fill="red" stroke="none" /><path d="M 79.34024301695615 103.76489593502545 l -41.13949995754958 7.496987321113135 a62.817021362719665,62.817021362719665 0 0,0 -0.1842189392960622,-1.0625258875816186 l 41.26213371433788 -6.789668400610924" fill="red" stroke="none" /><path d="M 79.17382384314188 102.69636545807758 l -33.75802649889931 4.370652389518241 a55.03978489077729,55.03978489077729 0 0,0 -0.11327165122363853,-0.9380517634850069 l 33.82808023638261 -3.7905069491098358" fill="red" stroke="none" /><path d="M 79.0935383218832 101.97986365728391 l -35.85190371625564 3.3952125570131613 a57.012309956276965,57.012309956276965 0 0,0 -0.08390685535152594,-0.9751248465137942 l 35.90490419430491 -2.779266663123705" fill="red" stroke="none" /><path d="M 79.03789590574601 101.26102812881392 l -22.558218257396042 1.3570463933674337 a43.59899966507517,43.59899966507517 0 0,0 -0.038529911193676936,-0.7474699838088347 l 22.57818975804629 -0.9696046161818682" fill="red" stroke="none" /><path d="M 79.00696218219943 100.54070618675478 l -43.77946945915738 1.1276038367984964 a64.79398858905246,64.79398858905246 0 0,0 -0.019094382398981143,-1.11215204826619 l 43.79237527315503 -0.37590487256325406" fill="red" stroke="none" /><line stroke="#e1ed5e" stroke-width="0.3" x1="15.003131293944662" x2="10.003315487706104" y1="100.72959589197737" y2="100.7725132973878" /><path d="M 14.003168132696942 100.73817937305945 a86.0,86.0 0 0,1 10.791469493833604,-42.45332614584628" fill="none" id="id10" stroke="none" /><text fill="#e1ed5e" style="font-size:6.75px; font-family:Arial;" text-anchor="middle"><textPath startOffset="22.145653131862435" xlink:href="#id10">October</textPath></text><path d="M 79.00077361379809 100.18025310272382 l -22.142739045394237 0.19006878359856177 a43.14355478632383,43.14355478632383 0 0,0 0.0,-0.7406437726447505 l 22.142739045394237 0.19006878359855361" fill="red" stroke="none" /><path d="M 79.01933749520258 99.09900007780938 l -20.88116206349652 -0.896726945117113 a41.90040785095127,41.90040785095127 0 0,0 0.037028808135004615,-0.718348985493444 l 20.862691665904947 1.255047723987269" fill="red" stroke="none" /><path d="M 79.06263194458094 98.37931529534042 l -39.58168048570286 -3.063872401636371 a60.70008493902475,60.70008493902475 0 0,0 0.08933427273354946,-1.0381996634574349 l 39.52325259027157 3.7428931124694866" fill="red" stroke="none" /><path d="M 79.17382384314186 97.30363454192245 l -29.440824292267912 -3.811704130470472 a50.686549536556754,50.686549536556754 0 0,0 0.11912662650119824,-0.8619409265000425 l 29.371053149211505 4.3165333651705815" fill="red" stroke="none" /><path d="M 79.34024301695615 96.23510406497455 l -27.19277099633788 -4.9554287143946265 a48.64060542395411,48.64060542395411 0 0,0 0.156747148318071,-0.8201673150404191 l 27.103697555737654 5.42149859446836" fill="red" stroke="none" /><path d="M 79.407916724674 95.88100663000787 l -43.571763382956206 -8.71557297499426 a65.43489368258659,65.43489368258659 0 0,0 0.22977708819610065,-1.0995665472606249 l 43.41572858393574 9.462255973540293" fill="red" stroke="none" /><path d="M 79.56144815229197 95.17655741523228 l -45.639378735243724 -10.770769111932113 a67.89309499917411,67.89309499917411 0 0,0 0.2774321149687179,-1.1320177030137404 l 45.44775909375871 11.552642639553971" fill="red" stroke="none" /><path d="M 79.73907114497095 94.47779374421319 l -38.72757896145506 -10.555373859838678 a61.14027017269194,61.14027017269194 0 0,0 0.2846851339263463,-1.0102471085882407 l 38.54067533545413 11.218628892329932" fill="red" stroke="none" /><path d="M 79.94057633289273 93.78553927170692 l -36.221992591801474 -11.221665896183461 a58.9204236896964,58.9204236896964 0 0,0 0.3076074951306807,-0.963576097288812 l 36.02402038089354 11.841811027163665" fill="red" stroke="none" /><path d="M 80.5471966667186 92.08871423366112 l -31.16594909988304 -12.674920179062697 a54.64476162558016,54.64476162558016 0 0,0 0.36084838899679883,-0.8659047713487921 l 30.943774866349763 13.208057459852753" fill="red" stroke="none" /><path d="M 80.9802524753101 91.09779779509293 l -25.891079233300964 -12.1183323984146 a49.58674455028997,49.58674455028997 0 0,0 0.3674631420127982,-0.7678566376688795 l 25.67923683332826 12.561001538148567" fill="red" stroke="none" /><path d="M 81.29705330413844 90.45014215332179 l -20.828436123829032 -10.635147893310185 a44.3865371972211,44.3865371972211 0 0,0 0.3523275046152592,-0.67563444622258 l 20.64280055023883 10.99112858263725" fill="red" stroke="none" /><path d="M 81.46374523516351 90.13048839642627 l -22.413241502484137 -11.933788669224665 a46.39229620673153,46.39229620673153 0 0,0 0.3803166444767125,-0.6997397898807596 l 22.205079508392075 12.316783292580045" fill="red" stroke="none" /><line stroke="#e1ed5e" stroke-width="0.3" x1="26.387840678322718" x2="22.05771365940052" y1="57.49999999999999" y2="54.99999999999999" /><path d="M 25.521815274538284 56.99999999999999 a86.0,86.0 0 0,1 29.574782752854787,-30.34633250058573" fill="none" id="id11" stroke="none" /><text fill="#e1ed5e" style="font-size:6.75px; font-family:Arial;" text-anchor="middle"><textPath startOffset="21.40746469413373" xlink:href="#id11">November</textPath></text><path d="M 81.99639281039701 89.18935116829357 l -48.64135912515979 -29.207738574894854 a77.73688227425055,77.73688227425055 0 0,0 0.6967891232082695,-1.1381526670251412 l 48.13280203749613 30.038428358044538" fill="red" stroke="none" /><path d="M 82.78059297857968 87.97951657250589 l -9.375994424648557 -6.5451722848275535 a32.43453329564069,32.43453329564069 0 0,0 0.3226230615088685,-0.4538097392051214 l 9.262256264609716 6.705159250742196" fill="red" stroke="none" /><path d="M 82.98947788004972 87.6856937992154 l -20.03498241796967 -14.503782216823296 a45.73378699434022,45.73378699434022 0 0,0 0.4658268892796757,-0.6319836399523451 l 19.783053509106175 14.845572166044505" fill="red" stroke="none" /><path d="M 83.42222388311158 87.10902102172516 l -30.494643435902812 -23.71281918095989 a59.629277391529726,59.629277391529726 0 0,0 0.6352890985272084,-0.8026670227316455 l 30.08308790673404 24.232806147606215" fill="red" stroke="none" /><path d="M 83.8745106332314 86.54754324733833 l -18.55701945362635 -15.480925631482702 a45.16654773462202,45.16654773462202 0 0,0 0.5017905301953686,-0.5911079828358027 l 18.288534359923865 15.79720039676806" fill="red" stroke="none" /><path d="M 84.10781606972428 86.27271002978789 l -41.87806024072192 -36.173271014012684 a76.3378483985305,76.3378483985305 0 0,0 0.865122062859835,-0.9843500992678267 l 41.250927113903494 36.88683339109181" fill="red" stroke="none" /><path d="M 84.58840730492382 85.73525988315684 l -40.39357690817828 -37.38769174512188 a76.04071719613734,76.04071719613734 0 0,0 0.8949056977873959,-0.9503588390509767 l 39.74581537665461 38.075592044117364" fill="red" stroke="none" /><path d="M 85.34317274990677 84.96080404539775 l -17.827760225528248 -18.292852531346977 a46.54324741281998,46.54324741281998 0 0,0 0.5769756142255101,-0.5527295867116208 l 17.51111212543744 18.596194248364167" fill="red" stroke="none" /><path d="M 85.60350026404147 84.71141617570332 l -43.189499207875585 -45.86575147289003 a84.0,84.0 0 0,0 1.058280914744187,-0.9795290154705376 l 42.395788521817444 46.600398234492936" fill="red" stroke="none" /><path d="M 86.40962598614128 83.9905735841838 l -18.040888839414723 -21.252121689660818 a48.87698596384248,48.87698596384248 0 0,0 0.6443049611237963,-0.5375021140694946 l 17.67340954412902 21.558685987642196" fill="red" stroke="none" /><path d="M 87.25179093698888 83.31218511350988 l -9.723685982091938 -12.728617085071686 a37.017732735212874,37.017732735212874 0 0,0 0.5082834567380586,-0.3814253817965047 l 9.503749536443125 12.893661494132193" fill="red" stroke="none" /><path d="M 87.83215693770416 82.88440491214696 l -17.525918035576233 -24.652398547884086 a51.24729007950057,51.24729007950057 0 0,0 0.7213785957877316,-0.503578284944926 l 17.100144348614734 24.94962164863414" fill="red" stroke="none" /><path d="M 88.12776184653039 82.6780497279521 l -7.385816377946245 -10.77612682322018 a34.06427161685122,34.06427161685122 0 0,0 0.48517857542250337,-0.3264497983761172 l 7.199741514426752 10.901326295653407" fill="red" stroke="none" /><path d="M 89.03521579738668 82.08984904055464 l -8.843259059746481 -14.444799077376588 a37.93680758536176,37.93680758536176 0 0,0 0.558334502162799,-0.33526382629551077 l 8.593991801026249 14.594476904208022" fill="red" stroke="none" /><line stroke="#e1ed5e" stroke-width="0.3" x1="56.869717070023135" x2="54.33264160355391" y1="26.7553504044142" y2="22.446841604673864" /><path d="M 56.362301976729285 25.89364864446614 a86.0,86.0 0 0,1 42.16139366436587,-11.88097634709845" fill="none" id="id12" stroke="none" /><text fill="#e1ed5e" style="font-size:6.75px; font-family:Arial;" text-anchor="middle"><textPath startOffset="22.145653131862474" xlink:href="#id12">December</textPath></text><path d="M 89.65649057296885 81.72400993836675 l -12.719666754247319 -22.474432379826627 a46.82421408551486,46.82421408551486 0 0,0 0.7029336012134021,-0.38990541925086675 l 12.331988964877814 22.68947071451064" fill="red" stroke="none" /><path d="M 90.61103034731259 81.2157712731953 l -11.29100457984398 -22.589572703803714 a46.254219040835366,46.254219040835366 0 0,0 0.7132835602267867,-0.3489027324019411 l 10.901560770355141 22.780069186302867" fill="red" stroke="none" /><path d="M 91.26138138417902 80.90454125486306 l -15.234079776565276 -33.28921362546472 a57.60941040826226,57.60941040826226 0 0,0 0.9027849921309106,-0.403804244018643 l 14.660381381578746 33.545821620393205" fill="red" stroke="none" /><path d="M 91.92203290615298 80.6158196554323 l -10.14350135002298 -24.34071062804639 a47.36969498337454,47.36969498337454 0 0,0 0.7532808721174992,-0.3063527728902038 l 9.72416601671504 24.511250657515887" fill="red" stroke="none" /><path d="M 92.93061703081487 80.22567764915836 l -6.5476648165398705 -18.314983824175002 a40.45020686341269,40.45020686341269 0 0,0 0.6558600931703605,-0.2281421858965499 l 6.2322989513245055 18.42468444264014" fill="red" stroke="none" /><path d="M 93.61358852112211 79.99465700312896 l -7.418377940593133 -23.23796324004837 a45.39334472382412,45.39334472382412 0 0,0 0.7443630219493637,-0.23060556695271048 l 7.018374285772152 23.36188539480772" fill="red" stroke="none" /><path d="M 96.76829788921471 79.25015418208739 l -1.4533098499377346 -9.331291770742405 a30.443787144501457,30.443787144501457 0 0,0 0.5170730745079608,-0.07599193556342747 l 1.2929116698220888 9.354864779604718" fill="red" stroke="none" /><path d="M 98.5590905019552 79.04949213459386 l -1.0885144366976849 -15.826761013503836 a36.86414913751961,36.86414913751961 0 0,0 0.6317034414746123,-0.03800171038108616 l 0.8166666430905887 15.843114701709615" fill="red" stroke="none" /><path d="M 98.9189461498227 79.02784411241856 l -0.9282609742817735 -18.008014914153332 a39.03192362408247,39.03192362408247 0 0,0 0.6694425430281326,-0.028748743231608573 l 0.6189926706528208 18.02129622581077" fill="red" stroke="none" /><path d="M 99.63950707515114 79.00309439819443 l -0.49155841015351276 -28.630813046037638 a49.63503248379075,49.63503248379075 0 0,0 0.8520513350023579,-0.007313835947550488 l 7.0135601749509655e-15 28.635032483790752" fill="red" stroke="none" /></svg>