<?xml version="1.0" encoding="utf-8" ?>
<svg baseProfile="full" height="200mm" version="1.1" viewBox="0,0,200,200" width="200mm" xmlns="http://www.w3.org/2000/svg" xmlns:ev="http://www.w3.org/2001/xml-events" xmlns:xlink="http://www.w3.org/1999/xlink"><defs /><rect fill="#1a1a1a" height="200" width="200" x="0" y="0" /><text alignment-baseline="middle" fill="#e1ed5e" style="dominant-baseline: central; font-size:9.0px; font-family:Arial;" text-anchor="middle" x="100.0" y="100.0">2025</text><line stroke="#e1ed5e" stroke-width="0.3" x1="100.0" x2="100.0" y1="15.0" y2="10.0" /><path d="M 100.0 14.0 a86.0,86.0 0 0,1 42.46469731375804,11.215312516191453" fill="none" id="id13" stroke="none" /><text fill="#e1ed5e" style="font-size:6.75px; font-family:Arial;" text-anchor="middle"><textPath startOffset="22.20632615414155" xlink:href="#id13">January</textPath></text><path d="M 100.0 79.0 l 0.0 -14.03138036050946 a35.03138036050946,35.03138036050946 0 0,0 0.6030076267759618,0.005190277019962747 l -0.2415271475034334 14.029301460098056" fill="#ff5007" stroke="none" /><path d="M 101.44485096284872 79.0497635885617 l 1.3008399936581094 -18.862087579509613 a39.906891139110925,39.906891139110925 0 0,0 0.6848969085040302,0.053161181737624595 l -1.6253270915244808 18.836901135583524" fill="#ff9c0e" stroke="none" /><path d="M 102.16513564639614 79.11191278185805 l 1.834152222260274 -17.694933642467934 a38.78973836192556,38.78973836192556 0 0,0 0.6635507419880852,0.07455765733828493 l -2.1384696677580846 17.66074003165905" fill="#ff8b0c" stroke="none" /><path d="M 102.88285421437855 79.19881850522331 l 2.9062010797620608 -20.96964037200818 a42.1700690137601,42.1700690137601 0 0,0 0.7181583227040463,0.10583786858751264 l -3.2667283828947626 20.916508019259698" fill="#ffbe11" stroke="none" /><path d="M 103.59715602781102 79.31037775812273 l 4.485963059839926 -25.801739035374343 a47.18880680412547,47.18880680412547 0 0,0 0.7990747585180783,0.14602580456186134 l -4.929432939460905 25.720697749461742" fill="#f8ff18" stroke="none" /><path d="M 104.307194497241 79.44645832069477 l 2.576803857847977 -12.296274413797255 a33.5633706695785,33.5633706695785 0 0,0 0.5644356454235105,0.12336377019506778 l -2.7880822274250154 12.250097145506317" fill="#ff3805" stroke="none" /><path d="M 104.66035177308747 79.52364482259891 l 3.8646892306624716 -16.980424051743867 a38.41466691690197,38.41466691690197 0 0,0 0.6434938045043095,0.1522941930751916 l -4.156406722129304 16.911383946527806" fill="#ff850c" stroke="none" /><path d="M 105.36241919743992 79.69619591428918 l 6.422120232605628 -24.316165189016832 a46.149940711293866,46.149940711293866 0 0,0 0.7663134161061319,0.2094624042788037 l -6.839731537935471 24.202016243911736" fill="#fff717" stroke="none" /><path d="M 106.0581310904928 79.89281104454417 l 8.683710555358136 -28.821596357511194 a51.101349564505256,51.101349564505256 0 0,0 0.840044444947142,0.2610058981719047 l -9.178540373015997 28.66785032445677" fill="#c3ff1e" stroke="none" /><path d="M 107.08798089147638 80.2323363322302 l 6.771835526734954 -18.885966138386184 a41.06333654658216,41.06333654658216 0 0,0 0.6633052152071219,0.24430090862376638 l -7.095923067714652 18.766601961956095" fill="#ffad10" stroke="none" /><path d="M 107.76421540070413 80.48803036053334 l 11.123092049182747 -27.953041377621236 a51.0848084420293,51.0848084420293 0 0,0 0.8142337811683106,0.3321464035312518 l -11.602609699939444 27.757434087906404" fill="#c4ff1e" stroke="none" /><path d="M 108.43124777332544 80.76684994638697 l 8.688439082449493 -19.819848389832984 a42.64059527567116,42.64059527567116 0 0,0 0.669696704816061,0.30047339026057984 l -9.028317905732335 19.66735466905587" fill="#ffc512" stroke="none" /><path d="M 109.41281617654863 81.2277094730956 l 8.185843654258976 -16.325298656996722 a39.26262337595864,39.26262337595864 0 0,0 0.6015398714746315,0.30813208610467274 l -8.465644013322363 16.181974045579548" fill="#ff920d" stroke="none" /><line stroke="#e1ed5e" stroke-width="0.3" x1="143.23703022742887" x2="145.7803849466894" y1="26.81831364943548" y2="22.513508569990506" /><path d="M 143.74570117128098 25.957352633546492 a86.0,86.0 0 0,1 28.547481713284135,27.462654790039103" fill="none" id="id14" stroke="none" /><text fill="#e1ed5e" style="font-size:6.75px; font-family:Arial;" text-anchor="middle"><textPath startOffset="19.985693538727396" xlink:href="#id14">February</textPath></text><path d="M 113.34407831869373 83.78471172551755 l 8.574582217905178 -10.419552341940566 a34.494092456258585,34.494092456258585 0 0,0 0.45522751160416347,0.38123994932610494 l -8.752667266468459 10.270411235220642" fill="#ff4706" stroke="none" /><path d="M 113.89432698308785 84.25364557470407 l 11.623804884464988 -13.173185840815377 a38.568314238673295,38.568314238673295 0 0,0 0.49402155986420215,0.44353743422556285 l -11.84883743192518 12.971149397820517" fill="#ff880c" stroke="none" /><path d="M 114.42810811169701 84.74124197986012 l 10.06579514939908 -10.645299527556224 a35.65068715183881,35.65068715183881 0 0,0 0.44226673237073727,0.4254602461331764 l -10.247545125382235 10.470456194660745" fill="#ff5a08" stroke="none" /><path d="M 115.4437574822437 85.77008943001954 l 10.50206601042094 -9.676625672226637 a35.28042278392466,35.28042278392466 0 0,0 0.4076675690606774,0.45015671185259565 l -10.667077220097653 9.494416173104492" fill="#ff5407" stroke="none" /><path d="M 115.9244219780498 86.31012108654704 l 13.111523573998054 -11.27169138988738 a38.29054878308864,38.29054878308864 0 0,0 0.4253704111832552,0.5035043981066681 l -13.303604598668427 11.044328042151605" fill="#ff830c" stroke="none" /><path d="M 116.38621287248628 86.86637796730983 l 31.698747626872123 -25.40668630883011 a61.624011499449765,61.624011499449765 0 0,0 0.656283748061075,0.8334137133794839 l -32.131385455527166 24.857280201497588" fill="#42ff2d" stroke="none" /><path d="M 117.04232023915458 87.72973835380427 l 14.399558520714978 -10.367505607185146 a38.74351876338261,38.74351876338261 0 0,0 0.3850134966814011,0.5445742868023087 l -14.57588463720026 10.118104820051045" fill="#ff8a0c" stroke="none" /><path d="M 117.45458315368197 88.32363383020206 l 11.850011595965436 -7.927148605760693 a35.257014408435204,35.257014408435204 0 0,0 0.33310048980322216,0.507334898681333 l -11.984708721126584 7.721995643101686" fill="#ff5407" stroke="none" /><line stroke="#e1ed5e" stroke-width="0.3" x1="172.23445277983987" x2="176.4835382374775" y1="55.19839476539836" y2="52.563006222186495" /><path d="M 173.08426987136738 54.67131705675599 a86.0,86.0 0 0,1 12.851231095245387,41.99856678651699" fill="none" id="id15" stroke="none" /><text fill="#e1ed5e" style="font-size:6.75px; font-family:Arial;" text-anchor="middle"><textPath startOffset="22.20632615414155" xlink:href="#id15">March</textPath></text><path d="M 117.84615892207809 88.93136811851018 l 53.538476766234254 -33.20589564446945 a84.0,84.0 0 0,0 0.7515368068551043,1.2353289071716742 l -54.10212937137558 32.279398964090696" fill="#4dd2ff" stroke="none" /><path d="M 118.21658344932153 89.55222093294921 l 7.942161850798906 -4.5550776611185375 a30.1556904361772,30.1556904361772 0 0,0 0.2543738158247452,0.4525026345590982 l -8.019393307916083 4.417691516624646" fill="#ff0000" stroke="none" /><path d="M 118.56541770881063 90.18545643968196 l 18.92276883293855 -10.003455990358207 a42.40421248389821,42.40421248389821 0 0,0 0.3355800051951388,0.6482337570666545 l -19.092158271293805 9.676249511031207" fill="#ffc112" stroke="none" /><path d="M 118.89224826269711 90.83032412892265 l 19.4323659985031 -9.43183125357569 a42.60037705910956,42.60037705910956 0 0,0 0.3145161620126934,0.6624512488202362 l -19.59184035435755 9.095937589114913" fill="#ffc412" stroke="none" /><line stroke="#e1ed5e" stroke-width="0.3" x1="184.98032266829074" x2="189.97916517819016" y1="98.17113171792111" y2="98.06355123074" /><path d="M 185.9800911702706 98.14961562048488 a86.0,86.0 0 0,1 -9.607161424134198,41.387399972396054" fill="none" id="id16" stroke="none" /><text fill="#e1ed5e" style="font-size:6.75px; font-family:Arial;" text-anchor="middle"><textPath startOffset="21.466115282336823" xlink:href="#id16">April</textPath></text><line stroke="#e1ed5e" stroke-width="0.3" x1="174.80103733775053" x2="179.2010983576182" y1="140.37084112569926" y2="142.7455964860345" /><path d="M 175.68104954172406 140.8457921977663 a86.0,86.0 0 0,1 -30.038265399797805,32.042727171017184" fill="none" id="id17" stroke="none" /><text fill="#e1ed5e" style="font-size:6.75px; font-family:Arial;" text-anchor="middle"><textPath startOffset="22.206326154141568" xlink:href="#id17">May</textPath></text><line stroke="#e1ed5e" stroke-width="0.3" x1="143.8653032363475" x2="146.44561519142675" y1="172.8068346515853" y2="177.08958963109032" /><path d="M 144.38136562736335 173.6633856474863 a86.0,86.0 0 0,1 -40.68145358897372,12.25698825130547" fill="none" id="id18" stroke="none" /><text fill="#e1ed5e" style="font-size:6.75px; font-family:Arial;" text-anchor="middle"><textPath startOffset="21.466115282336833" xlink:href="#id18">June</textPath></text><line stroke="#e1ed5e" stroke-width="0.3" x1="102.19456741930631" x2="102.32365962044197" y1="184.97166512339345" y2="189.96999836594603" /><path d="M 102.22038585953345 185.97133177190398 a86.0,86.0 0 0,1 -42.740103519485714,-10.115201625700543" fill="none" id="id19" stroke="none" /><text fill="#e1ed5e" style="font-size:6.75px; font-family:Arial;" text-anchor="middle"><textPath startOffset="22.20632615414155" xlink:href="#id19">July</textPath></text><line stroke="#e1ed5e" stroke-width="0.3" x1="58.666819895761336" x2="56.23545636021788" y1="174.27360380694188" y2="178.64263932499728" /><path d="M 58.180547188652646 175.14741091055294 a86.0,86.0 0 0,1 -31.652253787137756,-30.449443065178592" fill="none" id="id20" stroke="none" /><text fill="#e1ed5e" style="font-size:6.75px; font-family:Arial;" text-anchor="middle"><textPath startOffset="22.20632615414155" xlink:href="#id20">August</textPath></text><line stroke="#e1ed5e" stroke-width="0.3" x1="26.63291911575756" x2="22.317208475507996" y1="142.92168965132927" y2="145.44649492493687" /><path d="M 25.769776987707644 143.4266507060508 a86.0,86.0 0 0,1 -11.730757126820373,-40.83630448921669" fill="none" id="id21" stroke="none" /><text fill="#e1ed5e" style="font-size:6.75px; font-family:Arial;" text-anchor="middle"><textPath startOffset="21.46611528233685" xlink:href="#id21">September</textPath></text><line stroke="#e1ed5e" stroke-width="0.3" x1="15.007084014347285" x2="10.007500721073583" y1="101.09737516637583" y2="101.16192664675087" /><path d="M 14.007167355692545 101.11028546245083 a86.0,86.0 0 0,1 10.666146001902534,-42.60595125391555" fill="none" id="id22" stroke="none" /><text fill="#e1ed5e" style="font-size:6.75px; font-family:Arial;" text-anchor="middle"><textPath startOffset="22.20632615414155" xlink:href="#id22">October</textPath></text><line stroke="#e1ed5e" stroke-width="0.3" x1="26.266209847984243" x2="21.928928074336255" y1="57.711370442889674" y2="55.22380399835377" /><path d="M 25.398753493254645 57.213857153982495 a86.0,86.0 0 0,1 29.58750427330803,-30.492523968695096" fill="none" id="id23" stroke="none" /><text fill="#e1ed5e" style="font-size:6.75px; font-family:Arial;" text-anchor="middle"><textPath startOffset="21.46611528233685" xlink:href="#id23">November</textPath></text><line stroke="#e1ed5e" stroke-width="0.3" x1="56.762969772571076" x2="54.21961505331055" y1="26.818313649435495" y2="22.513508569990535" /><path d="M 56.25429882871897 25.957352633546506 a86.0,86.0 0 0,1 42.265352541879196,-11.944610805530505" fill="none" id="id24" stroke="none" /><text fill="#e1ed5e" style="font-size:6.75px; font-family:Arial;" text-anchor="middle"><textPath startOffset="22.20632615414155" xlink:href="#id24">December</textPath></text></svg>